<!--?xml version="1.0" standalone="no"?-->
              <svg id="sw-js-blob-svg" viewBox="0 0 100 100" xmlns="http://www.w3.org/2000/svg" version="1.1">
                    <defs> 
                        <linearGradient id="sw-gradient" x1="0" x2="1" y1="1" y2="0">
                            <stop id="stop1" stop-color="rgba(248, 117, 55, 1)" offset="0%"></stop>
                            <stop id="stop2" stop-color="rgba(251, 168, 31, 1)" offset="100%"></stop>
                        </linearGradient>
                    </defs>
                <path fill="url(#sw-gradient)" d="M23,-32.4C30.1,-26.4,36.5,-20.2,38.6,-12.8C40.7,-5.4,38.4,3.2,35.2,11C32,18.8,27.9,25.8,21.9,30.4C15.9,34.9,8,36.9,-0.7,37.9C-9.4,38.9,-18.8,38.8,-26.7,34.9C-34.6,31,-41.1,23.2,-44,14.3C-46.9,5.3,-46.3,-4.8,-42.6,-13.2C-39,-21.7,-32.3,-28.5,-24.7,-34.2C-17.1,-40,-8.5,-44.8,-0.3,-44.4C7.9,-43.9,15.8,-38.3,23,-32.4Z" width="100%" height="100%" transform="translate(50 50)" stroke-width="0" style="transition: all 0.3s ease 0s;"></path>
              </svg>