<svg id="wave" style="transform:rotate(180deg); transition: 0.3s" viewBox="0 0 1440 320" version="1.1" xmlns="http://www.w3.org/2000/svg"><defs><linearGradient id="sw-gradient-0" x1="0" x2="0" y1="1" y2="0"><stop stop-color="rgba(29.771, 83.395, 157.928, 1)" offset="0%"></stop><stop stop-color="rgba(25.789, 0, 48.643, 1)" offset="100%"></stop></linearGradient></defs><path style="transform:translate(0, 0px); opacity:1" fill="url(#sw-gradient-0)" d="M0,0L26.7,37.3C53.3,75,107,149,160,186.7C213.3,224,267,224,320,213.3C373.3,203,427,181,480,170.7C533.3,160,587,160,640,181.3C693.3,203,747,245,800,224C853.3,203,907,117,960,112C1013.3,107,1067,181,1120,218.7C1173.3,256,1227,256,1280,256C1333.3,256,1387,256,1440,250.7C1493.3,245,1547,235,1600,197.3C1653.3,160,1707,96,1760,74.7C1813.3,53,1867,75,1920,101.3C1973.3,128,2027,160,2080,165.3C2133.3,171,2187,149,2240,165.3C2293.3,181,2347,235,2400,240C2453.3,245,2507,203,2560,154.7C2613.3,107,2667,53,2720,58.7C2773.3,64,2827,128,2880,160C2933.3,192,2987,192,3040,186.7C3093.3,181,3147,171,3200,181.3C3253.3,192,3307,224,3360,197.3C3413.3,171,3467,85,3520,42.7C3573.3,0,3627,0,3680,48C3733.3,96,3787,192,3813,240L3840,288L3840,320L3813.3,320C3786.7,320,3733,320,3680,320C3626.7,320,3573,320,3520,320C3466.7,320,3413,320,3360,320C3306.7,320,3253,320,3200,320C3146.7,320,3093,320,3040,320C2986.7,320,2933,320,2880,320C2826.7,320,2773,320,2720,320C2666.7,320,2613,320,2560,320C2506.7,320,2453,320,2400,320C2346.7,320,2293,320,2240,320C2186.7,320,2133,320,2080,320C2026.7,320,1973,320,1920,320C1866.7,320,1813,320,1760,320C1706.7,320,1653,320,1600,320C1546.7,320,1493,320,1440,320C1386.7,320,1333,320,1280,320C1226.7,320,1173,320,1120,320C1066.7,320,1013,320,960,320C906.7,320,853,320,800,320C746.7,320,693,320,640,320C586.7,320,533,320,480,320C426.7,320,373,320,320,320C266.7,320,213,320,160,320C106.7,320,53,320,27,320L0,320Z"></path></svg>