<svg id="wave" style="transform:rotate(180deg); transition: 0.3s" viewBox="0 0 1440 400" version="1.1" xmlns="http://www.w3.org/2000/svg"><defs><linearGradient id="sw-gradient-0" x1="0" x2="0" y1="1" y2="0"><stop stop-color="rgba(62, 137.734, 243, 1)" offset="0%"></stop><stop stop-color="rgba(140.362, 11, 255, 1)" offset="100%"></stop></linearGradient></defs><path style="transform:translate(0, 0px); opacity:1" fill="url(#sw-gradient-0)" d="M0,0L34.3,46.7C68.6,93,137,187,206,233.3C274.3,280,343,280,411,266.7C480,253,549,227,617,213.3C685.7,200,754,200,823,226.7C891.4,253,960,307,1029,280C1097.1,253,1166,147,1234,140C1302.9,133,1371,227,1440,273.3C1508.6,320,1577,320,1646,320C1714.3,320,1783,320,1851,313.3C1920,307,1989,293,2057,246.7C2125.7,200,2194,120,2263,93.3C2331.4,67,2400,93,2469,126.7C2537.1,160,2606,200,2674,206.7C2742.9,213,2811,187,2880,206.7C2948.6,227,3017,293,3086,300C3154.3,307,3223,253,3291,193.3C3360,133,3429,67,3497,73.3C3565.7,80,3634,160,3703,200C3771.4,240,3840,240,3909,233.3C3977.1,227,4046,213,4114,226.7C4182.9,240,4251,280,4320,246.7C4388.6,213,4457,107,4526,53.3C4594.3,0,4663,0,4731,60C4800,120,4869,240,4903,300L4937.1,360L4937.1,400L4902.9,400C4868.6,400,4800,400,4731,400C4662.9,400,4594,400,4526,400C4457.1,400,4389,400,4320,400C4251.4,400,4183,400,4114,400C4045.7,400,3977,400,3909,400C3840,400,3771,400,3703,400C3634.3,400,3566,400,3497,400C3428.6,400,3360,400,3291,400C3222.9,400,3154,400,3086,400C3017.1,400,2949,400,2880,400C2811.4,400,2743,400,2674,400C2605.7,400,2537,400,2469,400C2400,400,2331,400,2263,400C2194.3,400,2126,400,2057,400C1988.6,400,1920,400,1851,400C1782.9,400,1714,400,1646,400C1577.1,400,1509,400,1440,400C1371.4,400,1303,400,1234,400C1165.7,400,1097,400,1029,400C960,400,891,400,823,400C754.3,400,686,400,617,400C548.6,400,480,400,411,400C342.9,400,274,400,206,400C137.1,400,69,400,34,400L0,400Z"></path></svg>